<?xml version="1.0" encoding="UTF-8"?>
<svg xmlns="http://www.w3.org/2000/svg" xmlns:xlink="http://www.w3.org/1999/xlink" width="147.55pt" height="167.06pt" viewBox="0 0 147.55 167.06" version="1.1">
<defs>
<clipPath id="clip1">
  <path d="M 76 0 L 147.550781 0 L 147.550781 149 L 76 149 Z M 76 0 "/>
</clipPath>
<clipPath id="clip2">
  <path d="M 46 127 L 98 127 L 98 167.058594 L 46 167.058594 Z M 46 127 "/>
</clipPath>
</defs>
<g id="surface1">
<path style=" stroke:none;fill-rule:nonzero;fill:rgb(13.299561%,12.199402%,12.199402%);fill-opacity:1;" d="M 27.285156 20.253906 C 30.414063 19.886719 37.042969 19.058594 40.535156 14.734375 C 38.234375 14.089844 36.667969 13.445313 33.820313 15.101563 C 35.933594 15.289063 38.144531 15.191406 38.144531 15.191406 C 38.144531 15.191406 37.679688 16.113281 35.933594 16.484375 C 34.183594 16.851563 27.746094 17.859375 27.285156 20.253906 M 31.703125 10.40625 C 32.160156 9.765625 34.554688 7.742188 35.472656 7.1875 C 36.398438 6.636719 36.300781 7.371094 35.015625 8.664063 C 33.730469 9.953125 30.871094 12.710938 30.136719 16.390625 C 36.582031 13.539063 37.496094 8.753906 38.878906 3.601563 C 38.050781 4.796875 34.921875 5.53125 32.253906 7.464844 C 29.585938 9.398438 30.320313 9.671875 30.042969 12.15625 C 30.042969 12.15625 31.246094 11.054688 31.703125 10.40625 M 25.8125 7.742188 C 26.273438 6.820313 26.460938 8.109375 26.460938 11.421875 C 26.460938 14.734375 26.828125 17.679688 26.828125 17.679688 C 26.828125 17.679688 27.378906 17.035156 28.296875 13.996094 C 29.222656 10.960938 28.578125 7.007813 26 4.429688 C 25.8125 5.808594 23.972656 8.664063 22.964844 11.421875 C 21.949219 14.183594 24.214844 16.285156 24.433594 19.699219 C 25.261719 15.289063 25.355469 8.664063 25.8125 7.742188 M 25.171875 31.9375 C 26.273438 31.203125 28.113281 30.925781 27.652344 31.847656 C 27.195313 32.769531 26.273438 33.132813 24.890625 33.503906 C 23.511719 33.867188 22.59375 34.882813 22.042969 36.722656 C 26.460938 35.804688 29.863281 32.953125 31.148438 29.820313 C 30.414063 30.835938 28.207031 29.636719 26.550781 30.007813 C 24.890625 30.371094 24.710938 30.832031 23.328125 32.398438 C 23.328125 32.398438 24.066406 32.671875 25.171875 31.9375 M 18.179688 33.777344 C 18.726563 32.214844 19.191406 30.652344 20.660156 29.179688 C 20.476563 31.109375 19.375 36.078125 17.898438 38.652344 C 18.359375 38.46875 19.007813 38.195313 20.84375 35.160156 C 22.683594 32.121094 22.042969 30.28125 21.671875 26.324219 C 20.570313 27.796875 18.636719 29.910156 17.53125 31.386719 C 16.429688 32.859375 16.050781 36.742188 16.335938 38.75 C 16.796875 36.449219 17.628906 35.34375 18.179688 33.777344 M 15.414063 27.613281 C 15.414063 27.613281 15.875 27.523438 16.0625 28.992188 C 16.25 30.464844 17.070313 30.464844 17.441406 28.992188 C 17.808594 27.523438 16.890625 24.671875 13.945313 22.828125 C 14.773438 24.578125 13.847656 25.863281 12.929688 28.351563 C 12.011719 30.832031 13.296875 34.148438 14.3125 36.078125 C 15.96875 35.523438 15.414063 27.613281 15.414063 27.613281 M 15.785156 60.554688 C 18.558594 58.507813 20.386719 57.148438 21.308594 54.023438 C 22.226563 50.890625 23.238281 48.683594 24.0625 48.40625 C 21.761719 48.132813 15.691406 50.523438 16.152344 53.652344 C 16.613281 56.78125 16.980469 53.835938 18.265625 52.824219 C 19.558594 51.8125 20.660156 50.617188 20.660156 50.617188 C 20.660156 50.617188 18.542969 54.941406 17.347656 56.6875 C 16.152344 58.4375 16.0625 58.621094 15.785156 60.554688 M 13.296875 47.304688 C 11.003906 50.15625 10.355469 53.28125 10.453125 55.492188 C 10.539063 57.699219 12.289063 59.910156 12.101563 61.65625 C 12.652344 57.882813 11.273438 54.113281 11.917969 52.824219 C 12.566406 51.539063 12.652344 50.800781 12.652344 50.800781 L 13.390625 60.09375 C 13.390625 60.09375 14.496094 57.148438 14.589844 54.9375 C 14.679688 52.730469 13.484375 51.8125 13.578125 49.050781 C 13.664063 46.289063 13.296875 47.304688 13.296875 47.304688 M 6.855469 50.246094 C 7.871094 50.429688 8.515625 53.101563 8.515625 53.101563 L 9.4375 53.191406 C 9.4375 53.191406 9.34375 54.757813 9.527344 52.179688 C 9.714844 49.605469 6.855469 47.949219 4.375 47.488281 C 5.390625 48.777344 4.191406 53.101563 5.390625 55.402344 C 6.585938 57.699219 8.238281 59.171875 10.265625 62.121094 C 10.539063 60.277344 6.953125 52.457031 6.855469 50.246094 M 18.085938 75.546875 C 18.824219 74.261719 19.558594 73.433594 19.742188 74.261719 C 19.921875 75.089844 18.542969 77.019531 17.164063 78.859375 C 15.785156 80.699219 15.875 82.265625 15.875 83.371094 C 15.875 84.476563 17.628906 82.726563 20.015625 79.230469 C 22.40625 75.734375 23.238281 69.847656 22.6875 70.304688 C 22.132813 70.765625 21.121094 70.765625 19.464844 71.683594 C 16.164063 73.515625 16.25 75.179688 16.429688 77.480469 C 16.429688 77.480469 17.347656 76.839844 18.085938 75.546875 M 12.011719 69.75 C 11.351563 71.863281 9.714844 76.007813 10.078125 79.597656 C 10.453125 83.1875 12.78125 87.410156 12.746094 86.128906 C 12.652344 82.175781 11.273438 77.574219 11.917969 73.894531 C 13.210938 74.355469 12.929688 81.714844 14.222656 83.460938 C 14.863281 82.265625 15.230469 77.664063 14.40625 74.628906 C 13.578125 71.59375 12.476563 68.28125 12.011719 69.75 M 4.097656 75.824219 C 3.085938 74.71875 4.097656 74.628906 5.113281 75.644531 C 6.125 76.652344 7.6875 78.953125 8.882813 77.941406 C 9.070313 75.367188 5.9375 73.066406 1.707031 72.789063 C 2.6875 79.628906 5.980469 81.835938 8.9375 83.890625 C 9.042969 83.960938 9.199219 84.21875 9.25 84.105469 C 10.265625 81.988281 5.113281 76.929688 4.097656 75.824219 M 15.507813 108.390625 C 13.207031 107.65625 11.089844 106.277344 9.710938 104.4375 C 10.816406 104.53125 12.566406 106.371094 15.230469 105.726563 C 15.140625 102.230469 7.964844 101.585938 6.304688 103.054688 C 12.382813 111.613281 15.507813 111.246094 19.742188 111.890625 C 19.644531 111.335938 17.808594 109.128906 15.507813 108.390625 M 25.355469 95.144531 C 25.355469 95.144531 25.441406 96.523438 24.890625 99.746094 C 24.339844 102.964844 24.710938 104.804688 26.820313 106.371094 C 27.929688 103.242188 27.101563 94.683594 26.820313 92.109375 C 25.535156 92.382813 23.605469 93.671875 22.40625 96.0625 C 21.210938 98.457031 23.074219 100.789063 23.050781 100.207031 C 22.960938 97.628906 25.355469 95.144531 25.355469 95.144531 M 18.082031 100.390625 C 18.636719 103.054688 21.949219 107.195313 24.984375 109.589844 C 26.089844 105.449219 19.835938 99.007813 18.449219 97.90625 C 17.070313 96.796875 15.875 94.222656 15.875 94.222656 C 15.875 94.222656 15.96875 92.9375 15.601563 99.558594 C 15.230469 106.1875 21.429688 110.296875 23.511719 111.707031 C 21.761719 107.472656 17.898438 102.414063 18.082031 100.390625 M 40.074219 134.523438 C 40.074219 133.601563 35.382813 133.417969 33.910156 134.0625 C 32.433594 134.707031 29.585938 134.335938 29.398438 133.695313 C 29.214844 133.050781 31.332031 132.496094 34.09375 131.855469 C 31.605469 128.359375 29.953125 129.28125 28.570313 131.027344 C 27.1875 132.773438 25.722656 132.40625 24.710938 133.878906 C 29.398438 137.097656 36.667969 136.179688 38.878906 135.71875 C 38.878906 135.71875 40.074219 135.445313 40.074219 134.523438 M 32.53125 127.070313 C 35.429688 130.941406 39.230469 133.21875 43.109375 132.957031 C 42.097656 132.132813 35.105469 127.53125 33.355469 126.519531 C 31.605469 125.503906 32.066406 123.664063 33.632813 124.953125 C 35.195313 126.242188 42.464844 130.84375 43.753906 130.566406 C 42.375 127.992188 31.808594 122.253906 30.410156 121.460938 C 29.769531 121.089844 31.148438 125.230469 32.53125 127.070313 M 39.707031 125.046875 C 40.160156 124.496094 39.796875 119.984375 39.707031 117.777344 C 41.269531 119.160156 41.726563 123.207031 41.726563 125.78125 C 41.726563 128.359375 44.398438 129.371094 44.578125 127.621094 C 45.15625 122.148438 42.097656 117.132813 38.78125 114.832031 C 38.269531 116.03125 38.628906 117.304688 38.414063 118.605469 C 38.175781 120.097656 37.429688 121.648438 37.769531 123.664063 C 38.023438 125.128906 39.207031 125.648438 39.707031 125.046875 M 65.242188 147.664063 C 58.261719 143.8125 47.472656 136.464844 45.789063 135.742188 C 38.808594 138.386719 27.167969 140.25 20.703125 132.015625 C 26.480469 133.699219 28.167969 127.921875 30.574219 127.921875 C 29.851563 124.550781 27.015625 115.394531 20.273438 114.671875 C 13.53125 113.949219 8.558594 109.089844 6.875 106.683594 C 5.1875 104.273438 1.972656 101.570313 1.972656 100.367188 C 6.546875 102.296875 12.761719 99.273438 13.722656 101.679688 C 13.722656 96.863281 15.40625 89.398438 11.074219 87.476563 C 6.738281 85.546875 0 79.53125 0 69.175781 C 2.648438 72.066406 8.046875 72.1875 9.257813 74.355469 C 10.699219 71.460938 11.3125 68.691406 10.835938 65.804688 C 8.667969 61.230469 3.691406 59.433594 3.457031 53.097656 C 3.261719 47.785156 2.648438 46.785156 1.4375 46.304688 C 4.8125 45.097656 9.355469 47.457031 10.078125 49.140625 C 11.765625 49.625 15.4375 40.953125 13.945313 38.5625 C 12.101563 35.617188 10.816406 31.203125 11.917969 27.523438 C 13.027344 23.839844 12.839844 20.988281 11.273438 20.347656 C 12.652344 18.140625 17.898438 22.550781 18.449219 25.589844 C 19.007813 28.628906 19.007813 27.980469 20.570313 25.863281 C 22.132813 23.75 23.425781 20.804688 22.6875 17.859375 C 21.949219 14.917969 20.570313 12.800781 22.40625 8.9375 C 24.246094 5.074219 25.535156 2.867188 24.523438 1.023438 C 26.550781 1.394531 29.125 5.351563 29.308594 6.914063 C 31.976563 5.351563 38.972656 2.496094 40.628906 0.105469 C 40.71875 5.53125 38.972656 10.132813 36.945313 12.15625 C 39.523438 13.261719 42.652344 13.628906 43.9375 11.144531 C 42.652344 16.484375 38.785156 18.136719 34.921875 20.070313 C 31.058594 22 25.492188 20.582031 22.964844 27.335938 C 22.40625 28.8125 22.964844 29.453125 22.964844 29.453125 C 27.195313 28.257813 30.042969 29.914063 32.347656 27.433594 C 33.175781 30.742188 30.601563 35.160156 25.628906 37 C 20.660156 38.839844 15.601563 42.242188 15.050781 45.003906 C 14.496094 47.761719 14.585938 51.167969 14.585938 51.167969 C 19.464844 47.210938 20.84375 46.105469 28.386719 46.199219 C 26.550781 48.777344 23.882813 50.246094 23.328125 52.546875 C 22.777344 54.847656 22.410156 58.894531 14.589844 64.050781 C 13.945313 68.003906 13.664063 69.292969 14.679688 71.132813 C 15.691406 72.972656 15.324219 71.683594 18.824219 70.027344 C 22.316406 68.371094 23.789063 68.648438 24.710938 65.890625 C 24.523438 71.40625 22.5 81.070313 19.097656 84.105469 C 15.691406 87.140625 15.96875 89.347656 16.25 91.832031 C 16.519531 94.316406 20.203125 96.710938 20.203125 96.710938 C 23.417969 91.097656 25.628906 90.269531 29.125 89.8125 C 27.746094 92.9375 30.414063 107.933594 27.378906 112.078125 C 25.515625 114.613281 28.480469 117.503906 30.507813 119.433594 C 32.53125 121.363281 35.296875 123.140625 36.03125 123.050781 C 35.59375 120.738281 35.929688 117.039063 37.035156 115.570313 C 38.144531 114.09375 37.957031 113.824219 38.144531 111.335938 C 41.179688 112.808594 46.699219 120.535156 46.238281 125.78125 C 45.777344 131.027344 47.226563 132.761719 48.882813 134.324219 C 50.539063 135.886719 56.171875 138.941406 56.171875 138.941406 C 56.171875 138.941406 56.355469 140.78125 58.929688 142.25 C 61.511719 143.722656 67.03125 145.195313 67.03125 145.195313 "/>
<g clip-path="url(#clip1)" clip-rule="nonzero">
<path style=" stroke:none;fill-rule:nonzero;fill:rgb(13.299561%,12.199402%,12.199402%);fill-opacity:1;" d="M 111.605469 16.375 C 109.859375 16.007813 109.40625 15.089844 109.40625 15.089844 C 109.40625 15.089844 111.605469 15.179688 113.726563 14.996094 C 110.875 13.339844 109.308594 13.984375 107.011719 14.628906 C 110.503906 18.953125 117.132813 19.78125 120.257813 20.148438 C 119.800781 17.753906 113.359375 16.746094 111.605469 16.375 M 117.5 12.054688 C 117.21875 9.570313 117.960938 9.292969 115.289063 7.359375 C 112.621094 5.429688 109.492188 4.691406 108.667969 3.492188 C 110.046875 8.648438 110.964844 13.433594 117.402344 16.285156 C 116.667969 12.605469 113.816406 9.84375 112.53125 8.554688 C 111.242188 7.269531 111.148438 6.53125 112.070313 7.082031 C 112.988281 7.632813 115.382813 9.660156 115.84375 10.304688 C 116.300781 10.949219 117.5 12.054688 117.5 12.054688 M 123.113281 19.597656 C 123.328125 16.179688 125.597656 14.074219 124.582031 11.316406 C 123.574219 8.554688 121.730469 5.703125 121.546875 4.320313 C 118.96875 6.898438 118.328125 10.855469 119.246094 13.890625 C 120.164063 16.925781 120.71875 17.570313 120.71875 17.570313 C 120.71875 17.570313 121.085938 14.628906 121.085938 11.316406 C 121.085938 8.003906 121.269531 6.714844 121.730469 7.632813 C 122.191406 8.554688 122.28125 15.179688 123.113281 19.597656 M 124.214844 32.292969 C 122.835938 30.726563 122.648438 30.269531 120.996094 29.898438 C 119.339844 29.535156 117.132813 30.726563 116.394531 29.71875 C 117.679688 32.847656 121.089844 35.699219 125.503906 36.617188 C 124.953125 34.773438 124.027344 33.765625 122.648438 33.394531 C 121.269531 33.03125 120.351563 32.660156 119.890625 31.742188 C 119.429688 30.820313 121.269531 31.097656 122.378906 31.835938 C 123.476563 32.570313 124.214844 32.292969 124.214844 32.292969 M 131.210938 38.640625 C 131.492188 36.636719 131.117188 32.753906 130.011719 31.28125 C 128.90625 29.808594 126.976563 27.695313 125.871094 26.222656 C 125.503906 30.175781 124.859375 32.019531 126.699219 35.054688 C 128.539063 38.089844 129.183594 38.367188 129.640625 38.550781 C 128.171875 35.972656 127.066406 31.003906 126.882813 29.074219 C 128.359375 30.546875 128.816406 32.109375 129.367188 33.675781 C 129.921875 35.234375 130.75 36.339844 131.210938 38.640625 M 133.234375 35.972656 C 134.242188 34.039063 135.535156 30.726563 134.613281 28.242188 C 133.691406 25.757813 132.773438 24.472656 133.597656 22.722656 C 130.65625 24.5625 129.738281 27.417969 130.105469 28.890625 C 130.472656 30.359375 131.300781 30.359375 131.484375 28.890625 C 131.667969 27.417969 132.128906 27.507813 132.128906 27.507813 C 132.128906 27.507813 131.578125 35.421875 133.234375 35.972656 M 130.199219 56.585938 C 128.996094 54.835938 126.882813 50.511719 126.882813 50.511719 C 126.882813 50.511719 127.988281 51.707031 129.277344 52.71875 C 130.5625 53.730469 130.933594 56.675781 131.390625 53.542969 C 131.851563 50.417969 125.78125 48.027344 123.476563 48.304688 C 124.308594 48.578125 125.316406 50.789063 126.238281 53.914063 C 127.160156 57.039063 128.992188 58.398438 131.757813 60.445313 C 131.484375 58.515625 131.390625 58.328125 130.199219 56.585938 M 133.972656 48.945313 C 134.058594 51.703125 132.863281 52.625 132.957031 54.835938 C 133.046875 57.039063 134.152344 59.988281 134.152344 59.988281 L 134.886719 50.695313 C 134.886719 50.695313 134.980469 51.429688 135.621094 52.71875 C 136.265625 54.003906 134.886719 57.78125 135.4375 61.550781 C 135.257813 59.800781 137.003906 57.59375 137.097656 55.386719 C 137.1875 53.179688 136.546875 50.050781 134.242188 47.195313 C 134.242188 47.195313 133.875 46.1875 133.972656 48.945313 M 137.28125 62.011719 C 139.304688 59.066406 140.960938 57.59375 142.15625 55.292969 C 143.351563 52.992188 142.15625 48.671875 143.171875 47.382813 C 140.683594 47.84375 137.835938 49.5 138.015625 52.074219 C 138.199219 54.648438 138.109375 53.089844 138.109375 53.089844 L 139.03125 52.992188 C 139.03125 52.992188 139.671875 50.324219 140.683594 50.144531 C 140.597656 52.351563 137.003906 60.171875 137.28125 62.011719 M 131.117188 77.375 C 131.300781 75.078125 131.378906 73.414063 128.078125 71.582031 C 126.421875 70.660156 125.410156 70.660156 124.859375 70.199219 C 124.308594 69.738281 125.136719 75.628906 127.527344 79.125 C 129.921875 82.617188 131.667969 84.367188 131.667969 83.261719 C 131.667969 82.160156 131.757813 80.597656 130.378906 78.757813 C 128.996094 76.917969 127.617188 74.984375 127.800781 74.15625 C 127.988281 73.328125 128.722656 74.15625 129.460938 75.445313 C 130.199219 76.730469 131.117188 77.375 131.117188 77.375 M 133.136719 74.523438 C 132.3125 77.558594 132.679688 82.160156 133.324219 83.355469 C 134.613281 81.605469 134.335938 74.25 135.621094 73.785156 C 136.265625 77.46875 134.886719 82.066406 134.800781 86.023438 C 134.765625 87.308594 137.097656 83.082031 137.464844 79.492188 C 137.832031 75.90625 136.191406 71.757813 135.535156 69.648438 C 135.070313 68.175781 133.972656 71.488281 133.136719 74.523438 M 138.292969 84 C 138.34375 84.113281 138.503906 83.855469 138.601563 83.785156 C 141.5625 81.734375 144.859375 79.527344 145.835938 72.683594 C 141.605469 72.960938 138.476563 75.261719 138.660156 77.835938 C 139.855469 78.847656 141.417969 76.546875 142.433594 75.535156 C 143.441406 74.523438 144.457031 74.617188 143.441406 75.71875 C 142.433594 76.824219 137.28125 81.882813 138.292969 84 M 127.808594 111.785156 C 132.035156 111.140625 135.164063 111.507813 141.234375 102.953125 C 139.582031 101.480469 132.40625 102.121094 132.3125 105.617188 C 134.984375 106.265625 136.730469 104.421875 137.835938 104.332031 C 136.453125 106.171875 134.335938 107.554688 132.035156 108.289063 C 129.738281 109.023438 127.894531 111.234375 127.808594 111.785156 M 124.492188 100.097656 C 124.472656 100.679688 126.332031 98.351563 125.136719 95.957031 C 123.941406 93.566406 122.011719 92.28125 120.71875 92.003906 C 120.445313 94.578125 119.617188 103.136719 120.71875 106.265625 C 122.835938 104.699219 123.207031 102.859375 122.648438 99.636719 C 122.097656 96.421875 122.191406 95.039063 122.191406 95.039063 C 122.191406 95.039063 124.585938 97.523438 124.492188 100.097656 M 124.027344 111.601563 C 126.113281 110.191406 132.3125 106.078125 131.945313 99.457031 C 131.578125 92.828125 131.667969 94.121094 131.667969 94.121094 C 131.667969 94.121094 130.472656 96.695313 129.089844 97.800781 C 127.710938 98.902344 121.453125 105.34375 122.558594 109.484375 C 125.597656 107.09375 128.90625 102.953125 129.460938 100.28125 C 129.648438 102.308594 125.78125 107.367188 124.027344 111.601563 M 108.667969 135.613281 C 110.875 136.074219 118.144531 136.996094 122.835938 133.773438 C 121.828125 132.300781 120.351563 132.671875 118.972656 130.921875 C 117.59375 129.175781 115.933594 128.253906 113.453125 131.75 C 116.214844 132.394531 118.328125 132.945313 118.144531 133.589844 C 117.960938 134.234375 115.105469 134.605469 113.636719 133.960938 C 112.164063 133.3125 107.472656 133.5 107.472656 134.421875 C 107.472656 135.335938 108.667969 135.613281 108.667969 135.613281 M 117.132813 121.351563 C 115.734375 122.148438 105.171875 127.886719 103.792969 130.464844 C 105.082031 130.738281 112.347656 126.136719 113.910156 124.847656 C 115.480469 123.5625 115.933594 125.402344 114.1875 126.414063 C 112.441406 127.425781 105.445313 132.023438 104.4375 132.855469 C 108.3125 133.109375 112.113281 130.832031 115.019531 126.964844 C 116.398438 125.125 117.777344 120.988281 117.132813 121.351563 M 109.769531 123.5625 C 110.113281 121.546875 109.367188 119.992188 109.125 118.5 C 108.917969 117.203125 109.273438 115.929688 108.757813 114.730469 C 105.449219 117.027344 102.386719 122.042969 102.960938 127.519531 C 103.148438 129.265625 105.816406 128.253906 105.816406 125.679688 C 105.816406 123.101563 106.273438 119.050781 107.839844 117.671875 C 107.746094 119.882813 107.378906 124.386719 107.839844 124.941406 C 108.339844 125.542969 109.519531 125.027344 109.769531 123.5625 M 82.378906 143.320313 C 82.378906 143.320313 89.496094 140.8125 98.664063 134.21875 C 100.511719 132.890625 101.765625 130.921875 101.304688 125.675781 C 100.847656 120.433594 106.367188 112.703125 109.40625 111.230469 C 109.585938 113.714844 109.40625 113.992188 110.503906 115.460938 C 111.613281 116.9375 111.953125 120.628906 111.511719 122.949219 C 112.246094 123.039063 115.015625 121.261719 117.039063 119.328125 C 119.066406 117.394531 122.03125 114.511719 120.167969 111.96875 C 117.132813 107.828125 119.800781 92.835938 118.417969 89.703125 C 121.914063 90.164063 124.125 90.992188 127.34375 96.605469 C 127.34375 96.605469 131.023438 94.214844 131.300781 91.730469 C 131.578125 89.242188 131.851563 87.039063 128.445313 84 C 125.042969 80.964844 123.015625 71.304688 122.835938 65.78125 C 123.757813 68.542969 125.226563 68.269531 128.722656 69.921875 C 132.21875 71.582031 131.851563 72.871094 132.863281 71.03125 C 133.875 69.1875 133.597656 67.898438 132.957031 63.941406 C 125.136719 58.789063 124.769531 54.742188 124.214844 52.445313 C 123.664063 50.144531 120.996094 48.667969 119.15625 46.09375 C 126.699219 46.003906 128.078125 47.105469 132.957031 51.0625 C 132.957031 51.0625 133.046875 47.65625 132.496094 44.898438 C 131.945313 42.140625 126.882813 38.734375 121.914063 36.894531 C 116.949219 35.054688 114.367188 30.640625 115.199219 27.324219 C 117.5 29.808594 120.351563 28.152344 124.585938 29.347656 C 124.585938 29.347656 125.136719 28.703125 124.585938 27.234375 C 122.050781 20.476563 116.488281 21.898438 112.621094 19.960938 C 108.757813 18.03125 104.890625 16.375 103.609375 11.039063 C 104.890625 13.523438 108.023438 13.15625 110.597656 12.050781 C 108.574219 10.027344 106.828125 5.429688 106.917969 -0.00390625 C 108.574219 2.394531 115.570313 5.242188 118.234375 6.808594 C 118.417969 5.242188 120.996094 1.285156 123.015625 0.917969 C 122.011719 2.757813 123.292969 4.96875 125.136719 8.832031 C 126.976563 12.695313 125.597656 14.8125 124.859375 17.757813 C 124.125 20.699219 125.410156 23.644531 126.976563 25.757813 C 128.539063 27.878906 128.539063 28.519531 129.089844 25.484375 C 129.648438 22.449219 134.886719 18.03125 136.265625 20.242188 C 134.703125 20.882813 134.519531 23.738281 135.621094 27.417969 C 136.730469 31.097656 135.4375 35.515625 133.597656 38.457031 C 132.101563 40.847656 135.78125 49.519531 137.464844 49.039063 C 138.183594 47.355469 142.726563 44.996094 146.101563 46.199219 C 144.894531 46.679688 144.285156 47.679688 144.085938 52.992188 C 143.855469 59.324219 138.875 61.128906 136.710938 65.699219 C 136.230469 68.589844 136.84375 71.359375 138.292969 74.25 C 139.496094 72.082031 144.894531 71.957031 147.542969 69.070313 C 147.542969 79.425781 140.804688 85.441406 136.46875 87.367188 C 132.136719 89.296875 133.820313 96.757813 133.820313 101.570313 C 134.785156 99.164063 140.996094 102.1875 145.570313 100.265625 C 145.570313 101.464844 142.363281 104.167969 140.671875 106.578125 C 138.988281 108.984375 134.007813 113.84375 127.269531 114.5625 C 120.53125 115.289063 117.695313 124.445313 116.972656 127.816406 C 119.378906 127.816406 121.0625 133.59375 126.839844 131.910156 C 120.378906 140.148438 108.738281 138.285156 101.753906 135.636719 C 100.988281 135.964844 98.332031 137.667969 95.007813 139.792969 C 91.03125 142.324219 80.742188 147 76.71875 148.691406 "/>
</g>
<g clip-path="url(#clip2)" clip-rule="nonzero">
<path style=" stroke:none;fill-rule:nonzero;fill:rgb(13.299561%,12.199402%,12.199402%);fill-opacity:1;" d="M 64.457031 129.09375 C 60.308594 128.527344 58.234375 131.480469 57.609375 133.679688 C 56.976563 135.878906 57.753906 140.152344 61.128906 142.605469 C 58.804688 138.332031 57.921875 133.300781 64.457031 129.09375 M 66.847656 143.421875 C 66.15625 141.914063 66.910156 135.691406 69.042969 133.804688 C 67.601563 131.605469 64.394531 129.910156 61.753906 133.488281 C 59.117188 137.074219 60.878906 143.613281 66.847656 143.421875 M 73.707031 146.851563 C 77.03125 147.054688 79.972656 145.933594 82.511719 141.847656 C 84.871094 138.046875 84.140625 135.328125 82.753906 132.21875 C 83.097656 136.050781 81.988281 139.605469 80.421875 141.679688 C 79.484375 142.914063 76.695313 145.917969 73.707031 146.851563 M 70.59375 137.429688 C 71.601563 135.03125 74.113281 132.285156 77.601563 130.65625 C 74.214844 131.019531 71.492188 131.757813 69.398438 135.703125 C 67.140625 139.953125 67.652344 143.0625 69.5 145.832031 C 68.796875 142.773438 69.992188 138.855469 70.59375 137.429688 M 75.144531 144.566406 C 82.269531 138.558594 81.054688 135.828125 80.257813 132.292969 C 70.574219 133.695313 70.980469 140.699219 70.714844 146.105469 C 70.714844 146.105469 73.871094 145.632813 75.144531 144.566406 M 73.785156 149.308594 C 73.785156 149.308594 70.96875 148.5625 71.246094 154.246094 C 71.378906 156.984375 74.386719 158.183594 74.316406 160.648438 L 77.652344 160.648438 C 77.652344 160.648438 78.050781 158.984375 75.117188 155.648438 C 72.183594 152.3125 74.519531 151.578125 74.714844 151.378906 C 74.914063 151.175781 75.117188 149.109375 73.785156 149.308594 M 94.207031 162.855469 L 92.800781 157.851563 L 78.585938 151.441406 C 78.65625 153.113281 94.207031 162.855469 94.207031 162.855469 M 67.308594 150.109375 C 65.039063 151.042969 62.4375 155.117188 62.503906 160.050781 C 62.503906 160.050781 65.109375 160.453125 65.574219 158.519531 C 66.039063 156.582031 64.507813 155.78125 67.242188 151.644531 Z M 60.636719 152.046875 C 60.636719 152.046875 48.824219 159.1875 48.757813 159.382813 C 48.691406 159.585938 48.621094 163.589844 48.621094 163.589844 L 59.367188 153.847656 Z M 56.171875 138.941406 C 55.347656 136.824219 54.089844 132.359375 58.738281 128.652344 C 63.128906 125.152344 69.574219 129.757813 70.847656 131.625 C 72.582031 129.222656 78.523438 127.289063 82.726563 131.023438 C 87.425781 135.203125 83.457031 142.699219 83.457031 142.699219 C 81.523438 145.90625 77.984375 147.976563 77.984375 147.976563 C 80.65625 149.976563 93.9375 156.515625 93.9375 156.515625 L 97.140625 166.65625 L 95.804688 166.65625 C 95.804688 166.65625 78.453125 153.046875 77.984375 153.113281 C 77.519531 153.179688 76.914063 152.046875 76.914063 153.515625 C 76.914063 154.980469 79.859375 159.785156 80.054688 162.1875 C 80.257813 164.589844 78.523438 161.984375 77.117188 162.519531 C 75.71875 163.054688 74.050781 164.257813 74.050781 164.257813 L 73.050781 164.191406 C 73.050781 164.191406 72.648438 160.183594 71.644531 158.449219 C 70.644531 156.71875 68.398438 153.878906 70.644531 150.175781 C 71.980469 147.976563 69.847656 148.90625 69.378906 150.109375 C 68.910156 151.308594 66.238281 154.445313 68.105469 159.320313 C 68.105469 159.320313 63.039063 161.320313 62.304688 162.789063 C 61.570313 164.257813 59.769531 158.386719 62.570313 153.78125 C 58.03125 157.316406 47.558594 167.058594 47.558594 167.058594 L 46.757813 158.851563 C 46.757813 158.851563 51.425781 155.179688 55.964844 152.914063 C 60.5 150.640625 65.640625 147.90625 65.640625 147.90625 C 65.640625 147.90625 58.046875 143.722656 56.171875 138.941406 "/>
</g>
<path style=" stroke:none;fill-rule:nonzero;fill:rgb(13.299561%,12.199402%,12.199402%);fill-opacity:1;" d="M 64.003906 111.796875 L 64.175781 114.964844 L 65.828125 112.257813 Z M 62.324219 108.035156 L 63.785156 108.410156 L 63.90625 110.347656 L 66.574219 111.027344 L 67.582031 109.375 L 69.015625 109.738281 L 64.410156 116.992188 L 62.980469 116.628906 "/>
<path style=" stroke:none;fill-rule:nonzero;fill:rgb(13.299561%,12.199402%,12.199402%);fill-opacity:1;" d="M 60.710938 110.15625 L 59.449219 109.625 C 59.828125 108.644531 59.648438 107.949219 58.914063 107.535156 C 58.542969 107.328125 58.207031 107.257813 57.894531 107.328125 C 57.578125 107.394531 57.34375 107.566406 57.191406 107.84375 C 57.097656 108.003906 57.058594 108.160156 57.070313 108.316406 C 57.078125 108.46875 57.136719 108.625 57.246094 108.78125 C 57.355469 108.9375 57.648438 109.261719 58.128906 109.757813 C 58.558594 110.199219 58.84375 110.582031 58.980469 110.890625 C 59.121094 111.207031 59.179688 111.546875 59.15625 111.914063 C 59.136719 112.285156 59.027344 112.632813 58.847656 112.96875 C 58.625 113.355469 58.339844 113.65625 57.980469 113.863281 C 57.628906 114.070313 57.246094 114.164063 56.835938 114.144531 C 56.425781 114.121094 55.988281 113.980469 55.519531 113.710938 C 54.8125 113.316406 54.363281 112.820313 54.175781 112.230469 C 53.992188 111.632813 54.078125 110.984375 54.445313 110.277344 L 55.699219 110.898438 C 55.535156 111.308594 55.496094 111.636719 55.589844 111.886719 C 55.683594 112.136719 55.890625 112.359375 56.21875 112.539063 C 56.542969 112.722656 56.832031 112.796875 57.085938 112.765625 C 57.328125 112.730469 57.515625 112.617188 57.625 112.421875 C 57.730469 112.230469 57.742188 112.019531 57.660156 111.800781 C 57.578125 111.578125 57.292969 111.222656 56.804688 110.742188 C 56.292969 110.226563 55.957031 109.800781 55.789063 109.457031 C 55.628906 109.117188 55.558594 108.753906 55.585938 108.375 C 55.609375 107.996094 55.742188 107.59375 55.980469 107.164063 C 56.328125 106.550781 56.8125 106.140625 57.445313 105.9375 C 58.070313 105.738281 58.796875 105.871094 59.628906 106.339844 C 61.101563 107.164063 61.460938 108.4375 60.710938 110.15625 "/>
<path style=" stroke:none;fill-rule:nonzero;fill:rgb(13.299561%,12.199402%,12.199402%);fill-opacity:1;" d="M 52.476563 106.472656 C 53.140625 105.808594 53.515625 105.179688 53.585938 104.589844 C 53.660156 103.996094 53.507813 103.511719 53.128906 103.128906 C 52.742188 102.742188 52.257813 102.585938 51.671875 102.660156 C 51.089844 102.734375 50.457031 103.113281 49.773438 103.796875 C 49.101563 104.464844 48.730469 105.085938 48.65625 105.652344 C 48.578125 106.21875 48.738281 106.699219 49.136719 107.101563 C 49.539063 107.5 50.023438 107.664063 50.597656 107.59375 C 51.167969 107.519531 51.792969 107.148438 52.476563 106.472656 M 53.53125 107.449219 C 52.84375 108.136719 52.171875 108.597656 51.515625 108.832031 C 50.863281 109.066406 50.253906 109.125 49.703125 109 C 49.144531 108.882813 48.628906 108.578125 48.148438 108.097656 C 47.453125 107.402344 47.144531 106.574219 47.222656 105.617188 C 47.304688 104.664063 47.828125 103.707031 48.78125 102.753906 C 49.75 101.789063 50.738281 101.269531 51.746094 101.191406 C 52.632813 101.121094 53.425781 101.4375 54.125 102.136719 C 54.828125 102.84375 55.148438 103.636719 55.078125 104.519531 C 54.996094 105.527344 54.484375 106.503906 53.53125 107.449219 "/>
<path style=" stroke:none;fill-rule:nonzero;fill:rgb(13.299561%,12.199402%,12.199402%);fill-opacity:1;" d="M 46.28125 96.746094 L 46.027344 95.332031 C 46.914063 95.046875 47.667969 95.003906 48.28125 95.210938 C 48.886719 95.417969 49.375 95.824219 49.742188 96.4375 C 50.207031 97.207031 50.285156 98.003906 49.996094 98.828125 C 49.65625 99.773438 48.925781 100.585938 47.792969 101.261719 C 46.597656 101.972656 45.496094 102.253906 44.492188 102.101563 C 43.617188 101.96875 42.9375 101.496094 42.453125 100.679688 C 42.054688 100.019531 41.949219 99.332031 42.121094 98.625 C 42.242188 98.121094 42.566406 97.613281 43.09375 97.097656 L 44.132813 98.074219 C 43.800781 98.378906 43.59375 98.703125 43.527344 99.046875 C 43.460938 99.394531 43.511719 99.71875 43.691406 100.023438 C 43.960938 100.460938 44.351563 100.707031 44.890625 100.761719 C 45.421875 100.816406 46.117188 100.589844 46.96875 100.085938 C 47.851563 99.558594 48.402344 99.046875 48.609375 98.554688 C 48.824219 98.066406 48.800781 97.605469 48.546875 97.175781 C 48.359375 96.859375 48.078125 96.660156 47.707031 96.570313 C 47.332031 96.484375 46.855469 96.542969 46.28125 96.746094 "/>
<path style=" stroke:none;fill-rule:nonzero;fill:rgb(13.299561%,12.199402%,12.199402%);fill-opacity:1;" d="M 47.832031 93.027344 L 40.308594 96.195313 L 39.769531 94.914063 L 47.292969 91.746094 Z M 47.832031 93.027344 "/>
<path style=" stroke:none;fill-rule:nonzero;fill:rgb(13.299561%,12.199402%,12.199402%);fill-opacity:1;" d="M 42.660156 87.9375 L 39.996094 89.664063 L 43.167969 89.746094 Z M 45.082031 84.605469 L 45.488281 86.058594 L 43.871094 87.132813 L 44.609375 89.785156 L 46.546875 89.832031 L 46.945313 91.253906 L 38.363281 90.882813 L 37.964844 89.457031 "/>
<path style=" stroke:none;fill-rule:nonzero;fill:rgb(13.299561%,12.199402%,12.199402%);fill-opacity:1;" d="M 41.546875 79.820313 L 41.914063 78.429688 C 42.84375 78.539063 43.539063 78.816406 44.011719 79.253906 C 44.484375 79.699219 44.757813 80.273438 44.832031 80.984375 C 44.925781 81.875 44.671875 82.632813 44.066406 83.257813 C 43.359375 83.980469 42.351563 84.410156 41.046875 84.550781 C 39.660156 84.699219 38.546875 84.492188 37.695313 83.933594 C 36.960938 83.449219 36.535156 82.730469 36.4375 81.792969 C 36.355469 81.027344 36.542969 80.355469 37 79.78125 C 37.320313 79.375 37.828125 79.046875 38.523438 78.800781 L 39.054688 80.125 C 38.628906 80.257813 38.308594 80.46875 38.101563 80.753906 C 37.898438 81.039063 37.8125 81.363281 37.851563 81.714844 C 37.902344 82.21875 38.164063 82.609375 38.621094 82.882813 C 39.085938 83.15625 39.804688 83.238281 40.789063 83.136719 C 41.808594 83.027344 42.519531 82.792969 42.914063 82.4375 C 43.3125 82.078125 43.484375 81.652344 43.433594 81.15625 C 43.394531 80.789063 43.222656 80.488281 42.921875 80.253906 C 42.617188 80.015625 42.15625 79.875 41.546875 79.820313 "/>
<path style=" stroke:none;fill-rule:nonzero;fill:rgb(13.299561%,12.199402%,12.199402%);fill-opacity:1;" d="M 44.472656 77.078125 L 36.3125 77.09375 L 36.3125 75.710938 L 44.472656 75.695313 Z M 44.472656 77.078125 "/>
<path style=" stroke:none;fill-rule:nonzero;fill:rgb(13.299561%,12.199402%,12.199402%);fill-opacity:1;" d="M 40.359375 73.339844 C 41.300781 73.320313 41.996094 73.121094 42.460938 72.746094 C 42.921875 72.371094 43.148438 71.914063 43.136719 71.371094 C 43.132813 70.820313 42.882813 70.375 42.414063 70.023438 C 41.941406 69.675781 41.226563 69.507813 40.261719 69.523438 C 39.3125 69.546875 38.621094 69.730469 38.175781 70.089844 C 37.730469 70.449219 37.515625 70.910156 37.523438 71.476563 C 37.53125 72.042969 37.769531 72.496094 38.230469 72.84375 C 38.695313 73.191406 39.40625 73.355469 40.359375 73.339844 M 40.441406 74.769531 C 39.472656 74.789063 38.667969 74.652344 38.035156 74.371094 C 37.398438 74.085938 36.929688 73.707031 36.609375 73.238281 C 36.292969 72.765625 36.125 72.191406 36.113281 71.511719 C 36.09375 70.527344 36.445313 69.714844 37.160156 69.085938 C 37.882813 68.449219 38.914063 68.117188 40.265625 68.09375 C 41.632813 68.066406 42.703125 68.375 43.484375 69.015625 C 44.171875 69.582031 44.527344 70.359375 44.542969 71.34375 C 44.5625 72.339844 44.242188 73.136719 43.585938 73.726563 C 42.828125 74.394531 41.78125 74.742188 40.441406 74.769531 "/>
<path style=" stroke:none;fill-rule:nonzero;fill:rgb(13.299561%,12.199402%,12.199402%);fill-opacity:1;" d="M 44.316406 67.003906 L 36.15625 67.230469 L 36.117188 65.878906 L 41.488281 62.914063 L 36.039063 63.066406 L 36.003906 61.769531 L 44.164063 61.542969 L 44.207031 62.941406 L 38.960938 65.859375 L 44.28125 65.710938 "/>
<path style=" stroke:none;fill-rule:nonzero;fill:rgb(13.299561%,12.199402%,12.199402%);fill-opacity:1;" d="M 43.8125 54.898438 L 35.65625 54.78125 L 35.6875 52.703125 L 41.277344 51.535156 L 35.71875 50.226563 L 35.75 48.132813 L 43.910156 48.246094 L 43.890625 49.542969 L 37.460938 49.453125 L 43.875 50.910156 L 43.855469 52.242188 L 37.40625 53.511719 L 43.832031 53.601563 "/>
<path style=" stroke:none;fill-rule:nonzero;fill:rgb(13.299561%,12.199402%,12.199402%);fill-opacity:1;" d="M 44.066406 46.953125 L 35.984375 45.769531 L 36.726563 40.714844 L 38.09375 40.910156 L 37.554688 44.597656 L 39.347656 44.859375 L 39.84375 41.4375 L 41.207031 41.636719 L 40.707031 45.058594 L 42.894531 45.382813 L 43.457031 41.574219 L 44.824219 41.773438 "/>
<path style=" stroke:none;fill-rule:nonzero;fill:rgb(13.299561%,12.199402%,12.199402%);fill-opacity:1;" d="M 44.878906 41.328125 L 41.449219 37.871094 L 37.09375 38.871094 L 37.539063 37.308594 L 40.261719 36.667969 L 38.296875 34.679688 L 38.738281 33.128906 L 41.894531 36.285156 L 46.644531 35.175781 L 46.175781 36.785156 L 43.097656 37.492188 L 45.332031 39.722656 "/>
<path style=" stroke:none;fill-rule:nonzero;fill:rgb(13.299561%,12.199402%,12.199402%);fill-opacity:1;" d="M 46.960938 34.660156 L 39.414063 31.542969 L 39.941406 30.265625 L 47.488281 33.378906 Z M 46.960938 34.660156 "/>
<path style=" stroke:none;fill-rule:nonzero;fill:rgb(13.299561%,12.199402%,12.199402%);fill-opacity:1;" d="M 47.578125 26.832031 L 48.699219 25.925781 C 49.375 26.570313 49.773438 27.210938 49.890625 27.847656 C 50.007813 28.480469 49.882813 29.105469 49.519531 29.722656 C 49.066406 30.492188 48.402344 30.949219 47.542969 31.089844 C 46.550781 31.242188 45.488281 30.988281 44.351563 30.320313 C 43.15625 29.613281 42.378906 28.78125 42.027344 27.828125 C 41.726563 26.996094 41.820313 26.175781 42.296875 25.355469 C 42.691406 24.695313 43.238281 24.269531 43.945313 24.082031 C 44.445313 23.949219 45.046875 23.988281 45.753906 24.203125 L 45.390625 25.585938 C 44.964844 25.4375 44.585938 25.414063 44.25 25.519531 C 43.910156 25.625 43.65625 25.828125 43.472656 26.132813 C 43.21875 26.570313 43.191406 27.039063 43.402344 27.53125 C 43.605469 28.027344 44.140625 28.527344 44.988281 29.027344 C 45.875 29.550781 46.582031 29.789063 47.117188 29.742188 C 47.648438 29.691406 48.039063 29.453125 48.292969 29.023438 C 48.480469 28.707031 48.519531 28.367188 48.421875 27.996094 C 48.316406 27.625 48.035156 27.238281 47.578125 26.832031 "/>
<path style=" stroke:none;fill-rule:nonzero;fill:rgb(13.299561%,12.199402%,12.199402%);fill-opacity:1;" d="M 51.835938 21.433594 L 49.019531 19.96875 L 50.507813 22.765625 Z M 55.921875 21.902344 L 54.855469 22.96875 L 53.128906 22.085938 L 51.1875 24.039063 L 52.09375 25.742188 L 51.050781 26.789063 L 47.15625 19.140625 L 48.199219 18.089844 "/>
<path style=" stroke:none;fill-rule:nonzero;fill:rgb(13.299561%,12.199402%,12.199402%);fill-opacity:1;" d="M 56.582031 21.519531 L 52.664063 14.359375 L 53.847656 13.710938 L 58.929688 17.140625 L 56.316406 12.359375 L 57.457031 11.734375 L 61.375 18.894531 L 60.144531 19.566406 L 55.164063 16.226563 L 57.722656 20.894531 "/>
<path style=" stroke:none;fill-rule:nonzero;fill:rgb(13.299561%,12.199402%,12.199402%);fill-opacity:1;" d="M 65.5 14.417969 L 63.878906 11.691406 L 63.671875 14.851563 Z M 68.734375 16.96875 L 67.265625 17.320313 L 66.261719 15.65625 L 63.578125 16.296875 L 63.457031 18.222656 L 62.019531 18.566406 L 62.730469 10.007813 L 64.164063 9.660156 "/>
<path style=" stroke:none;fill-rule:nonzero;fill:rgb(13.299561%,12.199402%,12.199402%);fill-opacity:1;" d="M 76.582031 10.269531 L 75.921875 15.625 L 76.953125 15.75 C 77.394531 15.804688 77.71875 15.804688 77.929688 15.746094 C 78.136719 15.691406 78.316406 15.589844 78.464844 15.441406 C 78.609375 15.292969 78.746094 15.046875 78.875 14.703125 C 79 14.363281 79.097656 13.902344 79.167969 13.324219 C 79.246094 12.726563 79.261719 12.246094 79.21875 11.890625 C 79.175781 11.535156 79.074219 11.246094 78.921875 11.027344 C 78.765625 10.804688 78.566406 10.648438 78.3125 10.554688 C 78.125 10.480469 77.757813 10.410156 77.203125 10.34375 Z M 75.367188 8.722656 L 77.886719 9.035156 C 78.523438 9.113281 78.996094 9.242188 79.300781 9.421875 C 79.613281 9.597656 79.878906 9.867188 80.113281 10.230469 C 80.34375 10.589844 80.503906 11.042969 80.59375 11.585938 C 80.6875 12.128906 80.683594 12.785156 80.589844 13.5625 C 80.5 14.261719 80.34375 14.863281 80.117188 15.363281 C 79.890625 15.855469 79.636719 16.242188 79.347656 16.515625 C 79.0625 16.785156 78.730469 16.976563 78.359375 17.085938 C 77.984375 17.195313 77.519531 17.214844 76.964844 17.148438 L 74.371094 16.824219 "/>
<path style=" stroke:none;fill-rule:nonzero;fill:rgb(13.299561%,12.199402%,12.199402%);fill-opacity:1;" d="M 81.199219 17.839844 L 84.023438 10.179688 L 88.820313 11.945313 L 88.34375 13.238281 L 84.851563 11.953125 L 84.222656 13.652344 L 87.472656 14.847656 L 86.996094 16.136719 L 83.75 14.941406 L 82.976563 17.019531 L 86.59375 18.351563 L 86.113281 19.648438 "/>
<path style=" stroke:none;fill-rule:nonzero;fill:rgb(13.299561%,12.199402%,12.199402%);fill-opacity:1;" d="M 93.75 21.335938 L 94.648438 20.296875 L 96.917969 22.257813 L 94.792969 24.71875 C 94.339844 24.78125 93.820313 24.726563 93.234375 24.550781 C 92.652344 24.378906 92.152344 24.109375 91.730469 23.742188 C 91.21875 23.300781 90.871094 22.785156 90.691406 22.199219 C 90.511719 21.613281 90.515625 20.976563 90.710938 20.285156 C 90.902344 19.597656 91.289063 18.921875 91.863281 18.257813 C 92.445313 17.582031 93.066406 17.101563 93.71875 16.816406 C 94.363281 16.535156 94.984375 16.433594 95.558594 16.519531 C 96.136719 16.601563 96.683594 16.863281 97.199219 17.308594 C 97.824219 17.847656 98.1875 18.433594 98.296875 19.066406 C 98.402344 19.695313 98.246094 20.359375 97.84375 21.046875 L 96.609375 20.378906 C 96.800781 19.996094 96.867188 19.625 96.808594 19.277344 C 96.742188 18.929688 96.566406 18.628906 96.28125 18.378906 C 95.835938 17.992188 95.320313 17.847656 94.753906 17.945313 C 94.179688 18.046875 93.597656 18.441406 93 19.132813 C 92.355469 19.878906 92.015625 20.570313 91.984375 21.21875 C 91.949219 21.777344 92.152344 22.242188 92.597656 22.625 C 92.800781 22.804688 93.054688 22.941406 93.355469 23.039063 C 93.660156 23.136719 93.96875 23.175781 94.28125 23.164063 L 94.957031 22.382813 "/>
<path style=" stroke:none;fill-rule:nonzero;fill:rgb(13.299561%,12.199402%,12.199402%);fill-opacity:1;" d="M 99.570313 27.625 L 101.488281 25.097656 L 98.480469 26.09375 Z M 98.414063 31.582031 L 97.546875 30.351563 L 98.703125 28.792969 L 97.109375 26.546875 L 95.273438 27.152344 L 94.417969 25.945313 L 102.625 23.40625 L 103.480469 24.605469 "/>
<path style=" stroke:none;fill-rule:nonzero;fill:rgb(13.299561%,12.199402%,12.199402%);fill-opacity:1;" d="M 100.644531 30.273438 L 101.378906 31.433594 C 100.5 32.019531 100.246094 32.695313 100.613281 33.457031 C 100.796875 33.835938 101.03125 34.085938 101.328125 34.210938 C 101.625 34.335938 101.914063 34.332031 102.199219 34.195313 C 102.367188 34.117188 102.492188 34.007813 102.570313 33.878906 C 102.652344 33.746094 102.691406 33.585938 102.695313 33.394531 C 102.695313 33.199219 102.640625 32.765625 102.53125 32.085938 C 102.429688 31.476563 102.417969 31.007813 102.480469 30.667969 C 102.542969 30.332031 102.695313 30.015625 102.925781 29.730469 C 103.152344 29.441406 103.441406 29.210938 103.785156 29.050781 C 104.183594 28.855469 104.589844 28.777344 105 28.808594 C 105.414063 28.84375 105.777344 28.988281 106.101563 29.238281 C 106.425781 29.492188 106.703125 29.863281 106.933594 30.347656 C 107.285156 31.078125 107.363281 31.742188 107.175781 32.335938 C 106.988281 32.929688 106.542969 33.410156 105.839844 33.777344 L 105.175781 32.554688 C 105.539063 32.3125 105.757813 32.058594 105.828125 31.796875 C 105.898438 31.542969 105.851563 31.242188 105.6875 30.902344 C 105.523438 30.566406 105.332031 30.339844 105.109375 30.222656 C 104.886719 30.105469 104.667969 30.089844 104.46875 30.1875 C 104.265625 30.285156 104.140625 30.445313 104.082031 30.679688 C 104.023438 30.914063 104.058594 31.363281 104.175781 32.042969 C 104.304688 32.753906 104.335938 33.300781 104.273438 33.675781 C 104.210938 34.050781 104.0625 34.386719 103.824219 34.679688 C 103.585938 34.976563 103.246094 35.230469 102.804688 35.441406 C 102.164063 35.75 101.53125 35.804688 100.90625 35.605469 C 100.273438 35.410156 99.753906 34.882813 99.34375 34.019531 C 98.613281 32.503906 99.046875 31.25 100.644531 30.273438 "/>
<path style=" stroke:none;fill-rule:nonzero;fill:rgb(13.299561%,12.199402%,12.199402%);fill-opacity:1;" d="M 101.328125 38.523438 L 107.785156 36.445313 L 107.15625 34.5 L 108.476563 34.078125 L 110.148438 39.28125 L 108.835938 39.699219 L 108.210938 37.765625 L 101.753906 39.84375 "/>
<path style=" stroke:none;fill-rule:nonzero;fill:rgb(13.299561%,12.199402%,12.199402%);fill-opacity:1;" d="M 107.40625 42.90625 L 107.585938 43.921875 C 107.695313 44.539063 107.796875 44.929688 107.875 45.085938 C 107.960938 45.246094 108.089844 45.363281 108.269531 45.441406 C 108.449219 45.519531 108.675781 45.53125 108.9375 45.484375 C 109.195313 45.4375 109.390625 45.347656 109.527344 45.214844 C 109.664063 45.082031 109.746094 44.921875 109.769531 44.730469 C 109.789063 44.597656 109.746094 44.222656 109.636719 43.613281 L 109.441406 42.542969 Z M 102.523438 42.367188 L 110.558594 40.933594 L 111.074219 43.816406 C 111.207031 44.550781 111.230469 45.089844 111.140625 45.433594 C 111.050781 45.773438 110.847656 46.078125 110.53125 46.347656 C 110.210938 46.613281 109.804688 46.789063 109.304688 46.878906 C 108.675781 46.992188 108.136719 46.925781 107.703125 46.683594 C 107.257813 46.441406 106.941406 46.042969 106.742188 45.488281 C 106.589844 45.820313 106.40625 46.101563 106.195313 46.339844 C 105.988281 46.570313 105.601563 46.910156 105.03125 47.351563 L 103.613281 48.457031 L 103.316406 46.824219 L 104.890625 45.519531 C 105.460938 45.050781 105.808594 44.738281 105.949219 44.585938 C 106.082031 44.425781 106.171875 44.273438 106.203125 44.121094 C 106.238281 43.964844 106.226563 43.730469 106.171875 43.417969 L 106.121094 43.136719 L 102.765625 43.734375 "/>
<path style=" stroke:none;fill-rule:nonzero;fill:rgb(13.299561%,12.199402%,12.199402%);fill-opacity:1;" d="M 107.710938 49.417969 C 106.769531 49.441406 106.070313 49.644531 105.609375 50.023438 C 105.152344 50.402344 104.929688 50.863281 104.941406 51.40625 C 104.957031 51.953125 105.199219 52.398438 105.679688 52.75 C 106.148438 53.097656 106.867188 53.257813 107.835938 53.230469 C 108.777344 53.207031 109.476563 53.015625 109.914063 52.648438 C 110.359375 52.292969 110.570313 51.828125 110.558594 51.261719 C 110.546875 50.691406 110.304688 50.242188 109.84375 49.894531 C 109.371094 49.554688 108.664063 49.394531 107.710938 49.417969 M 107.613281 47.988281 C 108.589844 47.964844 109.390625 48.089844 110.023438 48.371094 C 110.664063 48.648438 111.140625 49.023438 111.460938 49.492188 C 111.78125 49.964844 111.949219 50.535156 111.96875 51.214844 C 111.992188 52.199219 111.648438 53.015625 110.929688 53.652344 C 110.222656 54.289063 109.1875 54.625 107.835938 54.664063 C 106.476563 54.699219 105.398438 54.398438 104.613281 53.765625 C 103.917969 53.203125 103.5625 52.429688 103.535156 51.4375 C 103.507813 50.445313 103.824219 49.652344 104.480469 49.054688 C 105.230469 48.378906 106.273438 48.023438 107.613281 47.988281 "/>
<path style=" stroke:none;fill-rule:nonzero;fill:rgb(13.299561%,12.199402%,12.199402%);fill-opacity:1;" d="M 103.683594 55.730469 L 111.839844 55.730469 L 111.839844 60.847656 L 110.464844 60.847656 L 110.464844 57.117188 L 108.652344 57.117188 L 108.652344 60.578125 L 107.273438 60.578125 L 107.273438 57.117188 L 105.0625 57.117188 L 105.0625 60.96875 L 103.683594 60.96875 "/>
<path style=" stroke:none;fill-rule:nonzero;fill:rgb(13.299561%,12.199402%,12.199402%);fill-opacity:1;" d="M 103.683594 62.046875 L 111.839844 62.046875 L 111.839844 63.402344 L 106.394531 66.214844 L 111.839844 66.214844 L 111.839844 67.507813 L 103.683594 67.507813 L 103.683594 66.109375 L 109.003906 63.34375 L 103.683594 63.34375 "/>
<path style=" stroke:none;fill-rule:nonzero;fill:rgb(13.299561%,12.199402%,12.199402%);fill-opacity:1;" d="M 103.683594 70.40625 L 110.464844 70.40625 L 110.464844 68.363281 L 111.839844 68.363281 L 111.839844 73.832031 L 110.464844 73.832031 L 110.464844 71.792969 L 103.683594 71.792969 "/>
<path style=" stroke:none;fill-rule:nonzero;fill:rgb(13.299561%,12.199402%,12.199402%);fill-opacity:1;" d="M 103.714844 74.589844 L 111.871094 74.703125 L 111.804688 79.8125 L 110.425781 79.792969 L 110.480469 76.066406 L 108.660156 76.042969 L 108.613281 79.5 L 107.238281 79.480469 L 107.289063 76.027344 L 105.074219 75.992188 L 105.019531 79.839844 L 103.640625 79.820313 "/>
<path style=" stroke:none;fill-rule:nonzero;fill:rgb(13.299561%,12.199402%,12.199402%);fill-opacity:1;" d="M 107.875 83.171875 L 107.675781 84.179688 C 107.550781 84.792969 107.5 85.191406 107.519531 85.371094 C 107.539063 85.550781 107.621094 85.710938 107.757813 85.84375 C 107.894531 85.980469 108.101563 86.078125 108.367188 86.128906 C 108.621094 86.183594 108.835938 86.167969 109.011719 86.097656 C 109.1875 86.023438 109.320313 85.902344 109.417969 85.734375 C 109.484375 85.617188 109.574219 85.25 109.695313 84.644531 L 109.910156 83.578125 Z M 103.53125 80.886719 L 111.535156 82.488281 L 110.964844 85.359375 C 110.820313 86.089844 110.640625 86.601563 110.433594 86.886719 C 110.226563 87.171875 109.925781 87.378906 109.527344 87.515625 C 109.132813 87.644531 108.6875 87.660156 108.195313 87.558594 C 107.5625 87.433594 107.09375 87.179688 106.773438 86.792969 C 106.449219 86.410156 106.296875 85.921875 106.316406 85.332031 C 106.050781 85.585938 105.777344 85.785156 105.5 85.925781 C 105.222656 86.066406 104.734375 86.242188 104.046875 86.445313 L 102.316406 86.949219 L 102.644531 85.324219 L 104.582031 84.6875 C 105.28125 84.457031 105.726563 84.296875 105.910156 84.203125 C 106.09375 84.105469 106.230469 83.996094 106.316406 83.863281 C 106.40625 83.734375 106.480469 83.511719 106.546875 83.195313 L 106.601563 82.917969 L 103.261719 82.25 "/>
<path style=" stroke:none;fill-rule:nonzero;fill:rgb(13.299561%,12.199402%,12.199402%);fill-opacity:1;" d="M 105.414063 90.234375 C 104.542969 89.875 103.824219 89.773438 103.253906 89.933594 C 102.679688 90.09375 102.285156 90.421875 102.078125 90.925781 C 101.867188 91.429688 101.910156 91.9375 102.203125 92.449219 C 102.496094 92.960938 103.089844 93.398438 103.976563 93.769531 C 104.847656 94.128906 105.5625 94.238281 106.113281 94.085938 C 106.667969 93.9375 107.054688 93.601563 107.273438 93.078125 C 107.488281 92.554688 107.453125 92.042969 107.167969 91.542969 C 106.878906 91.035156 106.296875 90.601563 105.414063 90.234375 M 105.910156 88.894531 C 106.808594 89.265625 107.492188 89.710938 107.957031 90.226563 C 108.429688 90.738281 108.714844 91.277344 108.8125 91.832031 C 108.917969 92.394531 108.835938 92.988281 108.574219 93.613281 C 108.195313 94.523438 107.550781 95.121094 106.640625 95.414063 C 105.726563 95.707031 104.644531 95.59375 103.398438 95.078125 C 102.132813 94.550781 101.277344 93.839844 100.816406 92.9375 C 100.414063 92.148438 100.398438 91.296875 100.777344 90.382813 C 101.160156 89.460938 101.773438 88.863281 102.609375 88.589844 C 103.574219 88.277344 104.671875 88.378906 105.910156 88.894531 "/>
<path style=" stroke:none;fill-rule:nonzero;fill:rgb(13.299561%,12.199402%,12.199402%);fill-opacity:1;" d="M 99.058594 94.367188 L 105.828125 98.816406 L 105.0625 99.976563 L 99.453125 96.289063 L 97.550781 99.175781 L 96.398438 98.414063 "/>
<path style=" stroke:none;fill-rule:nonzero;fill:rgb(13.299561%,12.199402%,12.199402%);fill-opacity:1;" d="M 98.292969 102.449219 C 97.617188 101.796875 96.988281 101.433594 96.394531 101.367188 C 95.796875 101.300781 95.316406 101.460938 94.9375 101.851563 C 94.558594 102.238281 94.414063 102.726563 94.496094 103.308594 C 94.578125 103.886719 94.96875 104.519531 95.660156 105.191406 C 96.34375 105.855469 96.964844 106.21875 97.53125 106.285156 C 98.101563 106.351563 98.582031 106.183594 98.976563 105.78125 C 99.371094 105.375 99.523438 104.886719 99.445313 104.3125 C 99.363281 103.742188 98.980469 103.121094 98.292969 102.449219 M 99.257813 101.378906 C 99.957031 102.0625 100.425781 102.726563 100.671875 103.378906 C 100.910156 104.027344 100.980469 104.628906 100.867188 105.1875 C 100.753906 105.746094 100.464844 106.265625 99.988281 106.753906 C 99.304688 107.460938 98.480469 107.78125 97.527344 107.710938 C 96.566406 107.648438 95.601563 107.144531 94.636719 106.203125 C 93.652344 105.246094 93.117188 104.265625 93.027344 103.261719 C 92.945313 102.371094 93.242188 101.574219 93.933594 100.867188 C 94.628906 100.152344 95.417969 99.824219 96.304688 99.882813 C 97.3125 99.945313 98.296875 100.445313 99.257813 101.378906 "/>
<path style=" stroke:none;fill-rule:nonzero;fill:rgb(13.299561%,12.199402%,12.199402%);fill-opacity:1;" d="M 89.730469 108.183594 L 90.453125 109.359375 L 87.898438 110.917969 L 86.207031 108.144531 C 86.28125 107.691406 86.496094 107.21875 86.835938 106.71875 C 87.179688 106.214844 87.589844 105.820313 88.0625 105.53125 C 88.640625 105.179688 89.238281 105.003906 89.851563 105.011719 C 90.464844 105.019531 91.074219 105.21875 91.664063 105.613281 C 92.261719 106.007813 92.785156 106.582031 93.242188 107.328125 C 93.710938 108.09375 93.980469 108.832031 94.050781 109.535156 C 94.117188 110.242188 94.027344 110.859375 93.773438 111.378906 C 93.519531 111.90625 93.101563 112.347656 92.515625 112.703125 C 91.816406 113.128906 91.152344 113.296875 90.515625 113.207031 C 89.882813 113.117188 89.300781 112.773438 88.769531 112.171875 L 89.785156 111.203125 C 90.085938 111.507813 90.421875 111.679688 90.769531 111.726563 C 91.117188 111.773438 91.457031 111.699219 91.785156 111.5 C 92.285156 111.191406 92.578125 110.753906 92.660156 110.179688 C 92.734375 109.609375 92.539063 108.929688 92.0625 108.144531 C 91.550781 107.308594 90.988281 106.773438 90.382813 106.542969 C 89.863281 106.34375 89.359375 106.390625 88.863281 106.691406 C 88.636719 106.832031 88.425781 107.03125 88.242188 107.289063 C 88.054688 107.546875 87.921875 107.828125 87.835938 108.128906 L 88.375 109.011719 "/>
<path style=" stroke:none;fill-rule:nonzero;fill:rgb(13.299561%,12.199402%,12.199402%);fill-opacity:1;" d="M 84.671875 107.425781 L 87.6875 115.003906 L 86.398438 115.519531 L 83.382813 107.933594 Z M 84.671875 107.425781 "/>
<path style=" stroke:none;fill-rule:nonzero;fill:rgb(13.299561%,12.199402%,12.199402%);fill-opacity:1;" d="M 79.605469 112.347656 L 81.195313 115.089844 L 81.4375 111.933594 Z M 76.398438 109.757813 L 77.871094 109.421875 L 78.859375 111.09375 L 81.546875 110.488281 L 81.699219 108.5625 L 83.140625 108.238281 L 82.316406 116.785156 L 80.878906 117.109375 "/>
<path style=" stroke:none;fill-rule:nonzero;fill:rgb(13.299561%,12.199402%,12.199402%);fill-opacity:1;" d="M 73.886719 64.875 C 70.632813 67.890625 62.824219 73.5 62.824219 77.824219 C 62.824219 82.453125 65.210938 83.394531 68.113281 84.734375 C 68.113281 84.734375 67.921875 79.117188 68.113281 77.675781 C 68.300781 76.238281 74.890625 71.664063 78.285156 68.269531 C 81.398438 65.15625 84.320313 60.980469 80.046875 55.574219 C 79.109375 61.851563 75.664063 63.230469 73.886719 64.875 M 79.167969 51.675781 C 85.515625 57.511719 85.824219 62.234375 82.433594 66.632813 C 79.042969 71.03125 69.171875 77.976563 68.917969 79.738281 C 68.667969 81.5 68.480469 87.5 68.480469 87.5 C 64.582031 85.867188 60.683594 83.855469 60.683594 78.199219 C 60.683594 72.921875 67.125 67.925781 71.5 64.246094 C 73.886719 62.234375 78.847656 59.753906 79.167969 51.675781 "/>
<path style=" stroke:none;fill-rule:nonzero;fill:rgb(13.299561%,12.199402%,12.199402%);fill-opacity:1;" d="M 73.007813 92.53125 C 70.996094 94.414063 68.085938 96.964844 69.613281 98.9375 C 71.75 101.707031 76.023438 99.191406 76.023438 99.191406 L 76.023438 97.304688 C 76.023438 97.304688 74.011719 98.058594 73.132813 96.550781 C 72.25 95.042969 76.023438 92.277344 78.160156 90.769531 C 80.292969 89.261719 79.984375 87.566406 78.789063 86.371094 C 78.535156 88.757813 75.019531 90.644531 73.007813 92.53125 M 78.03125 82.847656 C 82.6875 86.371094 83.0625 88.882813 80.171875 92.027344 C 77.28125 95.167969 74.765625 95.167969 78.285156 96.046875 C 81.804688 96.929688 81.175781 98.058594 81.175781 98.058594 L 84.699219 98.5625 L 84.699219 100.195313 L 80.046875 100.195313 C 80.046875 100.195313 79.792969 99.316406 79.414063 99.316406 C 79.042969 99.316406 77.78125 99.441406 77.78125 99.441406 L 77.527344 100.445313 C 77.527344 100.445313 73.007813 102.960938 70.113281 101.707031 C 67.222656 100.445313 65.84375 96.175781 68.730469 93.40625 C 71.625 90.644531 78.03125 86.496094 78.03125 82.847656 "/>
<path style=" stroke:none;fill-rule:nonzero;fill:rgb(13.299561%,12.199402%,12.199402%);fill-opacity:1;" d="M 68.730469 47.996094 C 66.847656 46.492188 63.234375 43.160156 63.234375 39.136719 C 63.234375 35.113281 69.335938 30.527344 74.863281 30.777344 C 80.398438 31.03125 82.699219 34.816406 84.207031 36.703125 C 85.714844 38.589844 87.445313 39.25 87.445313 39.25 L 89.832031 39.5 C 89.832031 39.5 90.585938 39.625 90.839844 37.738281 C 91.089844 35.855469 90.585938 34.597656 89.332031 32.964844 C 88.074219 31.332031 82.042969 29.632813 82.042969 29.632813 C 82.042969 29.632813 78.84375 26.152344 73.464844 25.9375 C 70.613281 25.824219 62.570313 26.460938 58.296875 35.257813 C 54.023438 44.054688 60.359375 50.160156 67.992188 54.027344 L 68.839844 54.304688 M 69.101563 56.757813 C 67.769531 56.210938 66.59375 55.652344 66.59375 55.652344 C 58.726563 52.085938 51.679688 43.527344 56.667969 34.253906 C 62.632813 23.152344 74.402344 21.429688 82.460938 28.015625 C 82.574219 28.109375 82.648438 28.273438 82.792969 28.3125 C 85.054688 28.941406 92.128906 31.234375 92.09375 35.226563 C 92.058594 39.890625 93.222656 39.878906 91.089844 40.882813 C 88.953125 41.886719 86.941406 40.007813 86.058594 40.128906 C 85.183594 40.253906 81.789063 35.480469 80.03125 34.222656 C 78.269531 32.964844 71.871094 29.804688 66.847656 35.460938 C 63.425781 39.3125 65.4375 42.816406 69.011719 45.882813 "/>
<path style=" stroke:none;fill-rule:nonzero;fill:rgb(13.299561%,12.199402%,12.199402%);fill-opacity:1;" d="M 85.808594 34.972656 C 86.328125 34.726563 88.40625 34.871094 88.074219 36.859375 C 86.941406 37.238281 85.742188 35.855469 85.808594 34.972656 "/>
<path style=" stroke:none;fill-rule:nonzero;fill:rgb(13.299561%,12.199402%,12.199402%);fill-opacity:1;" d="M 91.09375 40.882813 L 92.5 43.960938 C 92.5 43.960938 95.523438 46.320313 95.050781 48.019531 C 94.105469 46.980469 92.785156 44.902344 92.785156 46.039063 L 92.785156 48.488281 C 92.785156 48.488281 91.941406 47.359375 91.839844 46.039063 C 91.75 44.71875 92.035156 45.09375 91.464844 44.058594 C 90.898438 43.019531 89.488281 40.945313 89.488281 40.945313 "/>
<path style=" stroke:none;fill-rule:nonzero;fill:rgb(13.299561%,12.199402%,12.199402%);fill-opacity:1;" d="M 69.839844 42.152344 C 69.839844 38.667969 71.195313 36.875 73.554688 36.875 C 76.339844 36.875 77.082031 38.007813 77.082031 42.152344 L 77.082031 60.046875 L 79.167969 58.070313 L 79.167969 39.5625 C 79.167969 36.929688 76.628906 34.800781 73.511719 34.800781 C 70.386719 34.800781 67.855469 36.929688 67.855469 39.5625 L 67.855469 68.792969 L 69.839844 66.90625 "/>
<path style=" stroke:none;fill-rule:nonzero;fill:rgb(13.299561%,12.199402%,12.199402%);fill-opacity:1;" d="M 79.167969 68.921875 L 77.082031 70.578125 L 77.082031 87.953125 L 79.167969 86.089844 Z M 79.167969 68.921875 "/>
<path style=" stroke:none;fill-rule:nonzero;fill:rgb(13.299561%,12.199402%,12.199402%);fill-opacity:1;" d="M 70.125 90.332031 L 70.125 76.34375 L 68.132813 77.925781 L 68.132813 91.882813 C 68.132813 93.074219 68.652344 94.160156 69.507813 94.996094 L 71.582031 93.136719 L 71.09375 93.53125 C 70.460938 92.710938 70.125 91.578125 70.125 90.332031 "/>
<path style=" stroke:none;fill-rule:nonzero;fill:rgb(13.299561%,12.199402%,12.199402%);fill-opacity:1;" d="M 77.085938 88.445313 L 77.085938 87.953125 L 71.300781 93.136719 "/>
<path style="fill:none;stroke-width:14.9;stroke-linecap:butt;stroke-linejoin:miter;stroke:rgb(13.299561%,12.199402%,12.199402%);stroke-opacity:1;stroke-miterlimit:4;" d="M 336.953125 1169.271875 C 336.953125 1349.0375 414.570313 1607.357812 725 1607.357812 C 1035.390625 1607.357812 1133.398438 1330.639062 1133.398438 1169.271875 L 1133.398438 868.56875 C 1133.398438 673.4125 986.40625 459.623437 722.96875 459.623437 C 459.453125 459.623437 345.117188 678.764062 345.117188 868.56875 C 345.117188 962.514062 336.953125 1169.271875 336.953125 1169.271875 Z M 336.953125 1169.271875 " transform="matrix(0.1,0,0,-0.1,0,167.06)"/>
<path style="fill:none;stroke-width:13.12;stroke-linecap:butt;stroke-linejoin:miter;stroke:rgb(13.299561%,12.199402%,12.199402%);stroke-opacity:1;stroke-miterlimit:4;" d="M 462.734375 1138.217187 C 462.734375 1274.545312 516.679688 1470.521875 732.1875 1470.521875 C 947.695313 1470.521875 1015.820313 1260.6 1015.820313 1138.217187 L 1015.820313 910.092187 C 1015.820313 762.045312 913.671875 599.857812 730.742188 599.857812 C 547.8125 599.857812 468.398438 766.06875 468.398438 910.092187 C 468.398438 981.342187 462.734375 1138.217187 462.734375 1138.217187 Z M 462.734375 1138.217187 " transform="matrix(0.1,0,0,-0.1,0,167.06)"/>
</g>
</svg>
